<?xml version="1.0" encoding="UTF-8" standalone="no"?>
<!-- Created with Inkscape (http://www.inkscape.org/) -->

<svg
   xmlns:dc="http://purl.org/dc/elements/1.1/"
   xmlns:cc="http://creativecommons.org/ns#"
   xmlns:rdf="http://www.w3.org/1999/02/22-rdf-syntax-ns#"
   xmlns:svg="http://www.w3.org/2000/svg"
   xmlns="http://www.w3.org/2000/svg"
   xmlns:sodipodi="http://sodipodi.sourceforge.net/DTD/sodipodi-0.dtd"
   xmlns:inkscape="http://www.inkscape.org/namespaces/inkscape"
   width="64px"
   height="64px"
   id="svg4244"
   version="1.1"
   inkscape:version="0.48.4 r9939"
   sodipodi:docname="map.svg">
  <defs
     id="defs4246" />
  <sodipodi:namedview
     id="base"
     pagecolor="#ffffff"
     bordercolor="#666666"
     borderopacity="1.0"
     inkscape:pageopacity="0.0"
     inkscape:pageshadow="2"
     inkscape:zoom="5.5"
     inkscape:cx="36.192462"
     inkscape:cy="20.036456"
     inkscape:current-layer="layer1"
     showgrid="true"
     inkscape:document-units="px"
     inkscape:grid-bbox="true"
     inkscape:window-width="1920"
     inkscape:window-height="1134"
     inkscape:window-x="1920"
     inkscape:window-y="27"
     inkscape:window-maximized="1" />
  <metadata
     id="metadata4249">
    <rdf:RDF>
      <cc:Work
         rdf:about="">
        <dc:format>image/svg+xml</dc:format>
        <dc:type
           rdf:resource="http://purl.org/dc/dcmitype/StillImage" />
        <dc:title />
      </cc:Work>
    </rdf:RDF>
  </metadata>
  <g
     id="layer1"
     inkscape:label="Layer 1"
     inkscape:groupmode="layer">
    <path
       inkscape:connector-curvature="0"
       id="nav_map"
       style="fill:#f9f9f9;fill-opacity:1;fill-rule:nonzero;stroke:none"
       d="m 53.284893,38.425024 c -1.385686,5.047133 -4.470608,9.390297 -8.61755,12.359914 l -3.046487,-10.211596 -1.600113,-0.457175 -3.548165,0.01214 -2.146297,-1.266334 0.121374,-2.512441 2.880609,-5.664118 -0.13958,-1.185419 0.145648,-0.966946 1.881297,-0.748472 -0.119351,-0.532023 -0.349962,-0.58664 -0.03236,-0.414695 4.349233,-3.206296 0,-0.612938 -1.547518,-1.191487 -0.155763,-0.580573 3.29328,-4.468584 1.256221,-0.540114 0.687785,0.04451 c 0.821297,0.736335 1.600114,1.515151 2.304082,2.360723 l -0.299389,0.09104 0.817251,0.83748 0.141604,-0.06069 c 1.915685,2.54683 3.325645,5.500263 4.023546,8.726787 l -0.04248,0.165878 0.121374,0.24477 c 0.269046,1.367481 0.426832,2.78351 0.440992,4.233929 0.01416,2.041106 -0.267023,4.013432 -0.76061,5.898774 l -0.173969,0.105191 0.115305,0.12542 z m -22.209411,-18.28701 -0.515839,-1.474693 0.194198,-1.397823 0.811183,-1.901526 -0.473358,-3.157745 -1.63248,-0.212405 -0.232634,-0.422786 0.117329,-0.574503 0.598777,-0.859732 0.293321,-0.1598095 c 0.384351,-0.022248 0.762633,-0.062712 1.15103,-0.066753 2.947364,-0.020232 5.75717,0.5401142 8.342436,1.5475182 l -1.490876,3.993203 -6.353928,5.496217 -0.809159,-0.80916 z m -8.384917,-0.629122 -0.295344,0.186108 -0.936602,-0.004 -0.13958,-0.145648 0.768702,-0.964923 0.206336,0.05057 0.206335,0.301412 0.190153,0.576526 z m 7.608124,29.182346 -2.465914,1.820609 -2.773395,3.550187 c -1.604159,-0.483472 -3.123356,-1.151029 -4.553546,-1.960189 l -0.07889,-2.842173 -2.649998,-5.126027 0.04248,-0.999312 0.76061,-1.822632 -0.01821,-1.2279 -0.835458,-0.924465 -6.113202,-2.696525 -2.0309902,-3.449043 -0.5562973,-0.204313 -0.010114,0.03439 C 9.0137381,32.769 9.003626,32.698195 9.003626,32.627393 8.9570997,26.639612 11.269273,21.193967 15.050072,17.127939 l 0.693854,0.386374 3.843508,-0.790953 0.45313,-0.262977 0.103168,0.208358 -0.273091,0.513816 -0.05057,0.224543 2.668204,-3.720112 0.194199,-0.07283 0.173969,-0.002 0.155763,0.06474 0.137557,0.135534 -1.681029,3.129426 0.645305,0.606869 0.910305,-0.623052 0.20229,-2.807785 1.146983,-0.362099 -0.548206,0.900191 1.703281,-0.964923 0.59271,0.137556 0.06069,0.283207 -1.086296,0.194198 2.049196,1.74374 0.794999,1.363434 -1.031678,1.132823 0.165878,0.192175 -0.750496,1.185419 -0.180038,-0.01012 -0.38435,0.204312 -1.765991,-1.110571 1.772059,-1.448396 -0.262977,-0.584618 -1.689121,-1.068091 -0.542137,1.529312 -3.661447,2.84015 -1.199579,1.798358 1.017518,1.159122 1.648663,0.758587 0.693854,0.623053 1.440304,-3.685723 0.556298,-0.536068 2.469959,1.191487 0.283207,-0.03844 2.028967,4.903507 -0.608893,0.228588 -0.754541,-0.03641 -0.24477,-0.327711 0.339847,-0.238701 0.190152,-0.25084 0.04248,-0.258931 -0.11126,-0.277137 -3.095036,0.877938 1.217785,0.90019 0.68374,0.08699 -4.707287,2.623701 -2.134158,3.103127 0.01618,1.630456 -0.786908,-0.184084 -0.374236,-1.070113 -2.544807,-0.473358 -1.019542,0.566412 -0.859732,1.165189 -0.1679,0.631145 0.09507,0.768701 0.491566,0.525954 1.363434,-0.657442 0.436946,0.0526 1.662823,2.803739 5.473966,0.186106 2.332402,0.886031 1.891411,2.478051 3.232593,0.958854 1.126755,0.835458 -1.438282,4.707287 z M 9.519468,34.684682 9.0663385,33.669187 c -0.00405,-0.07484 -0.012137,-0.149694 -0.012137,-0.224542 l 0.4834729,0.829389 -0.018206,0.410648 z m 6.254805,-18.228344 0.659465,-0.459199 -0.119352,-0.121373 c 0.689809,-0.637213 1.418053,-1.242061 2.184731,-1.788243 l 0.109237,0.04046 1.092366,-0.212405 -0.03236,1.219809 -1.260266,1.357365 -1.616296,0.744427 -1.098435,-0.627098 0.08092,-0.153741 z m 4.399805,-1.830723 0.841526,-0.928512 0.32771,0.1679 -0.123397,0.602824 -0.436946,0.517863 -0.612938,-0.09103 0.004,-0.269044 z m 2.411296,-2.858358 0.0971,0.143626 -0.273091,0.331756 -0.495611,0.212404 -0.457175,0.02832 -0.08901,-0.11935 c 0.402557,-0.204313 0.803091,-0.41874 1.217785,-0.596756 m 0.964923,-0.210381 0.469312,0.09305 1.628435,0.924465 0.390419,0.05866 -0.651373,0.627099 -1.053931,-0.143626 -0.82332,-0.653396 0.04046,-0.906259 z m 2.463892,-0.465267 0.44706,-0.588663 c 0.74645,-0.171947 1.505037,-0.307482 2.28183,-0.404581 l -2.427479,1.585954 -1.252174,0.05057 0.950763,-0.643282 z m 13.678844,7.848849 -0.639236,0.497633 -0.997289,-0.09508 -0.08092,-0.20229 0.03035,-0.920419 0.740381,0.163855 0.772747,-0.173969 0.364122,0.145648 -0.190152,0.584618 z m 0.192175,5.502286 -0.05665,0.708015 -1.023586,0.236679 -0.432901,-1.090343 -0.0081,-2.12809 1.52122,2.273739 z M 31.55491,7.2663066 c -13.806287,0 -25.0030352,11.1927014 -25.0030352,25.0010124 0,13.808309 11.1967482,24.998988 25.0030352,24.998988 13.806287,0 24.996965,-11.190679 24.996965,-24.998988 0,-13.808311 -11.190678,-25.0010124 -24.996965,-25.0010124"
       inkscape:export-filename="/home/andrea/git/smartcampus.bikesharing/BikeRovereto/res/drawable-xxhdpi/ic_map.png"
       inkscape:export-xdpi="217.63872"
       inkscape:export-ydpi="217.63872" />
  </g>
</svg>
