<?xml version="1.0" encoding="UTF-8" standalone="no"?>
<!-- Created with Inkscape (http://www.inkscape.org/) -->

<svg
   xmlns:dc="http://purl.org/dc/elements/1.1/"
   xmlns:cc="http://creativecommons.org/ns#"
   xmlns:rdf="http://www.w3.org/1999/02/22-rdf-syntax-ns#"
   xmlns:svg="http://www.w3.org/2000/svg"
   xmlns="http://www.w3.org/2000/svg"
   xmlns:sodipodi="http://sodipodi.sourceforge.net/DTD/sodipodi-0.dtd"
   xmlns:inkscape="http://www.inkscape.org/namespaces/inkscape"
   width="64px"
   height="64px"
   id="svg6149"
   version="1.1"
   inkscape:version="0.48.4 r9939"
   sodipodi:docname="stations.svg"
   inkscape:export-filename="/home/andrea/git/smartcampus.bikesharing/BikeRovereto/res/drawable-xxhdpi/ic_map.png"
   inkscape:export-xdpi="168.75"
   inkscape:export-ydpi="168.75">
  <defs
     id="defs6151" />
  <sodipodi:namedview
     id="base"
     pagecolor="#ffffff"
     bordercolor="#666666"
     borderopacity="1.0"
     inkscape:pageopacity="0.0"
     inkscape:pageshadow="2"
     inkscape:zoom="5.5"
     inkscape:cx="-18.328281"
     inkscape:cy="6.5385729"
     inkscape:current-layer="layer1"
     showgrid="true"
     inkscape:document-units="px"
     inkscape:grid-bbox="true"
     inkscape:window-width="1920"
     inkscape:window-height="1134"
     inkscape:window-x="1920"
     inkscape:window-y="27"
     inkscape:window-maximized="1"
     showguides="true"
     inkscape:guide-bbox="true" />
  <metadata
     id="metadata6154">
    <rdf:RDF>
      <cc:Work
         rdf:about="">
        <dc:format>image/svg+xml</dc:format>
        <dc:type
           rdf:resource="http://purl.org/dc/dcmitype/StillImage" />
        <dc:title />
      </cc:Work>
    </rdf:RDF>
  </metadata>
  <g
     id="layer1"
     inkscape:label="Layer 1"
     inkscape:groupmode="layer">
    <g
       id="nav_stations"
       transform="matrix(0.83333332,0,0,0.83333332,4.923677,3.4363236)"
       style="fill:#f9f9f9;fill-opacity:1">
      <g
         style="fill:#f9f9f9;fill-opacity:1;stroke:none"
         transform="matrix(2.4653621,0,0,2.4653621,4.2400129,0.0385871)"
         id="g3">
        <path
           style="fill:#f9f9f9;fill-opacity:1;stroke:none"
           inkscape:connector-curvature="0"
           id="path5"
           d="m 2.02,16.018 c 0,2.541 2.068,4.607 4.608,4.607 2.542,0 4.607,-2.066 4.607,-4.607 0,-1.996 -1.278,-3.695 -3.058,-4.333 l 0.361,-1.436 4.689,5.881 c 0,0 0.209,0.334 0.608,0.334 0.399,0 0.601,0 0.601,0 0.225,2.332 2.194,4.161 4.585,4.161 2.541,0 4.607,-2.066 4.607,-4.607 0,-2.541 -2.066,-4.607 -4.607,-4.607 -0.806,0 -1.563,0.209 -2.223,0.575 l -1.231,-1.798 0.7,-2.918 h -2.56 c 0,0 -0.786,0.676 0,0.892 0.563,0 1.428,0 1.428,0 L 14.814,9.499 H 8.727 L 9.213,7.567 c 0,0 0.782,-0.042 1.577,0 0.549,-0.479 0,-0.892 0,-0.892 H 6.627 c 0,0 -0.591,0.412 0,0.892 0.911,0 1.667,0 1.667,0 L 7.313,11.468 C 7.088,11.435 6.861,11.411 6.627,11.411 4.087,11.41 2.02,13.477 2.02,16.018 z M 16.063,12.49 c -0.899,0.756 -1.508,1.848 -1.627,3.082 h -0.163 l 1.013,-4.217 0.777,1.135 z m 0.509,0.741 1.604,2.34 h -2.841 c 0.111,-0.928 0.568,-1.751 1.237,-2.34 z m -1.237,3.233 c 0,0 2.961,0 3.742,0 0.781,0 0.554,-0.345 0.554,-0.345 l -2.325,-3.394 c 0.514,-0.269 1.098,-0.423 1.716,-0.423 2.049,0 3.716,1.667 3.716,3.715 0,2.048 -1.667,3.716 -3.716,3.716 -1.899,0 -3.465,-1.43 -3.687,-3.269 z M 9.792,10.389 h 4.809 l -1.113,4.637 -3.696,-4.637 z m -6.88,5.629 c 0,-2.049 1.667,-3.715 3.715,-3.715 0.159,0 0.314,0.013 0.467,0.033 L 6.195,15.91 c 0,0 0.3,0.922 0.865,0.218 0.179,-0.711 0.898,-3.574 0.898,-3.574 1.393,0.537 2.384,1.886 2.384,3.465 0,2.049 -1.666,3.716 -3.716,3.716 C 4.579,19.733 2.912,18.066 2.912,16.018 z" />
      </g>
      <rect
         y="19.135376"
         x="2.4915876"
         height="32.922569"
         width="9.5830946"
         id="rect6686"
         style="fill:#f9f9f9;fill-opacity:1" />
    </g>
  </g>
</svg>
